<?xml version="1.0" encoding="UTF-8"?>
<svg id="Calque_2" data-name="Calque 2" xmlns="http://www.w3.org/2000/svg" viewBox="0 0 383.39 314.62">
  <g id="Calque_1-2" data-name="Calque 1">
    <g>
      <path d="M383.39,147.56v19.46c-6.69,71.16-65.46,122.04-131.58,139.76-34.08,9.14-70.27,10.23-104.96,3.59-1.49-.74-5.07-12.03-5.77-14.44-9.06-31.25-6.94-64.86,5.7-94.76.87-1.13,15.67,2.1,18.52,2.42,42.34,4.88,90.26-1.79,126.42-25.32,56.13-36.53,59.26-97.2,3.14-135.67C237.45,3.25,141.45,3.73,85.24,45.15c-34.54,25.45-49.52,64.67-25.22,103.55-3.05,4.15-6.65,7.84-9.58,12.1-17.9,26.03-21.31,58.65-15.87,89.31l-8.09-10.24C-47.11,127.09,43.86,16.32,162.3,1.7c96.57-11.92,208.87,39.11,220.39,144.67l.69,1.19Z"/>
      <path d="M154.34,187.97c-.21-.91.28-1.34.6-2.02,11.13-23.66,29.96-47.12,41.45-70.83,3.4-7.02,2.7-12.43-6.3-12.31l-117.58,38.68c-1.4-.45-5.87-9.49-6.63-11.39-11.89-29.62,3.29-56.67,27.16-74.16,53.04-38.84,149.14-38.58,200.88,2.56,39.13,31.11,36.05,75.37-3.43,104.32-37.54,27.53-91.26,33.47-136.15,25.15Z"/>
      <path d="M176.04,122.11l-39.05,67.6c-7.46,15.79-11.89,32.63-14.47,49.9l-67.71,24.4h-2.31c-10.05-31.62-9.62-68.59,9.91-96.49,2.46-3.51,7.13-9.81,10.88-11.58l102.76-33.84Z"/>
    </g>
  </g>
</svg>