<?xml version="1.0" encoding="UTF-8"?>
<svg id="Calque_2" data-name="Calque 2" xmlns="http://www.w3.org/2000/svg" viewBox="0 0 41.45 35.92">
  <g id="Calque_1-2" data-name="Calque 1">
    <path d="M9.54,34.7c-.64-.65-1.36-1.24-2.01-1.87-1.6-1.53-3.29-3.23-4.77-4.87-.7-.77-2.66-2.85-2.76-3.79.33-5.1.68-10.28,1.42-15.33.34-2.35.38-3.72,2-5.58.42-.48,3.36-3.22,3.76-3.26l11.81,12.87-9.77,18.93c-.14.96.24,1.95.33,2.9Z"/>
    <path d="M40.89,20.2c-1.09,2.44-2.17,4.91-3.45,7.27-.44.81-1.74,3.26-2.46,3.62-.91.46-3.85.9-5.02,1.15-6.22,1.32-12.5,2.43-18.73,3.68l-.52-3.74,9.55-18.34c2.45,1.58,4.93,3.16,7.47,4.6,1.93,1.1,5.24,3.11,7.4,3.26s3.93-.61,5.76-1.5Z"/>
    <path d="M41.45,17.86l-.06.19c-1.83,1.2-3.98,2.33-6.25,2.13-1.39-.12-3.09-1.1-4.33-1.75-3.62-1.9-7.05-4.17-10.51-6.33L10.29,1.02l18.87,7.84,12.29,9Z"/>
  </g>
</svg>