<?xml version="1.0" encoding="UTF-8"?>
<svg id="Calque_2" data-name="Calque 2" xmlns="http://www.w3.org/2000/svg" viewBox="0 0 335.91 345.11">
  <g id="Calque_1-2" data-name="Calque 1">
    <g>
      <path d="M254.68,86.31c21.11-2.11,41.21,10.12,49.38,29.52l31.6,118.1c2.22,24.06-10.51,45.06-33.68,52.38l-215.55,57.67c-22.54,5.18-46.27-7.93-54.68-29.2L.54,198.54c-3.45-23.8,10.04-46.13,32.89-53.53,69.6-16.94,138.1-39.17,207.77-55.72,4.42-1.05,8.95-2.53,13.48-2.99ZM211.25,134.95l-117.19,31.02c-51.6,17.62-62.45,86.64-17.61,118.34,21.06,14.89,40.04,14,64.02,8.16,31.68-7.71,69.69-16.76,100.3-26.95,77.23-25.71,52.69-139.84-29.52-130.57Z"/>
      <path d="M254.34,54.4c-3.14-3.13-4.05-11.2-6.86-15.97-11.31-19.18-38.96-19.16-50.89-.49-2.72,4.26-3.75,10.56-9.32,12.39-6.72,2.21-10.25-1.43-16.09-2.22-12.75-1.73-25.5,7.52-27.04,20.47-1.08,9.08,6.88,19.94-4.18,25.76-10.09,5.31-16.76-2.81-18.76-11.97-7.34-33.53,21.58-63.57,55.29-57.74,21.01-30.5,63.05-33.35,87.32-4.77,1.27,1.49,4.39,7.48,5.73,7.74,33.39-13.88,69.31,13.12,66.05,49.04-1.02,11.24-8.8,26.36-21.57,16.52-7.42-5.72-3.13-11.56-2.37-18,2.21-18.71-17.02-33.21-34.11-25.13-6.6,3.12-8.41,9.41-17.66,7.45-1.15-.24-4.7-2.24-5.53-3.07Z"/>
      <path d="M49.58,12.2c56.98-5.66,62.59,79.77,8,83.61C2.46,99.68-3.51,17.47,49.58,12.2ZM51.04,36.12c-22.12,3.51-17.92,38.65,5.75,35.68,22.97-2.88,18.7-39.56-5.75-35.68Z"/>
      <path d="M213.48,158.89c53.4-6.7,72.28,66.86,16.65,84.77-34.99,11.26-72.89,18.16-108.24,28.74-36.47,5.08-63.01-34.56-42.82-66.02,7.77-12.1,17.29-15.8,30.38-19.77,34.11-10.34,69.74-17.73,104.03-27.72Z"/>
    </g>
  </g>
</svg>