<svg xmlns="http://www.w3.org/2000/svg" width="24" height="24" viewBox="0 0 24 24">
  <g id="vuesax_bold_forward" data-name="vuesax/bold/forward" transform="translate(-108 -444)">
    <g id="forward">
      <path id="Vector" d="M0,0H24V24H0Z" transform="translate(108 444)" fill="none" opacity="0"/>
      <path id="Vector-2" data-name="Vector" d="M0,1.954v7.32a1.955,1.955,0,0,0,2.93,1.69L6.1,9.134,9.27,7.3l.49-.28V4.2l-.49-.28L6.1,2.094,2.93.264A1.955,1.955,0,0,0,0,1.954Z" transform="translate(110 450.386)" fill="#292d32"/>
      <path id="Vector-3" data-name="Vector" d="M0,1.954v7.32a1.949,1.949,0,0,0,2.92,1.69L6.1,9.134,9.27,7.3a1.96,1.96,0,0,0,0-3.38L6.1,2.094,2.92.264A1.949,1.949,0,0,0,0,1.954Z" transform="translate(119.76 450.386)" fill="#292d32"/>
    </g>
  </g>
</svg>
