<svg xmlns="http://www.w3.org/2000/svg" width="24" height="24" viewBox="0 0 24 24">
  <g id="vuesax_bold_play-circle" data-name="vuesax/bold/play-circle" transform="translate(-364 -380)">
    <g id="play-circle">
      <path id="Vector" d="M10,0A10,10,0,1,0,20,10,10,10,0,0,0,10,0Zm3,12.23L10.1,13.9a2.285,2.285,0,0,1-1.15.31A2.258,2.258,0,0,1,7.8,13.9a2.285,2.285,0,0,1-1.15-2V8.55a2.305,2.305,0,0,1,3.46-2l2.9,1.67A2.318,2.318,0,0,1,13,12.23Z" transform="translate(365.97 382)" fill="#292d32"/>
      <path id="Vector-2" data-name="Vector" d="M0,0H24V24H0Z" transform="translate(364 380)" fill="none" opacity="0"/>
    </g>
  </g>
</svg>
